<svg width="696" height="381" viewBox="0 0 696 381" fill="none" xmlns="http://www.w3.org/2000/svg">
<circle cx="348" cy="192" r="95" stroke="black" stroke-width="10" stroke-linecap="round" stroke-linejoin="round" stroke-dasharray="20 30"/>
<circle cx="347.5" cy="192.5" r="72.5" stroke="black" stroke-width="40"/>
<circle cx="347.5" cy="192.5" r="38" stroke="black" stroke-width="5"/>
<circle cx="348" cy="192" r="8" fill="black"/>
<g clip-path="url(#clip0)">
<path d="M295.5 185.5L403 40.5L478.5 37L379.5 150.5L438.5 130.5L306 256.5L360 239.5L220 363.5L291 271L250 286L347 165L295.5 185.5Z" stroke="black" stroke-width="2"/>
<path d="M403 185.5L295.5 40.5L220 37L319 150.5L260 130.5L392.5 256.5L338.5 239.5L478.5 363.5L407.5 271L448.5 286L351.5 165L403 185.5Z" stroke="black" stroke-width="2"/>
</g>
<g clip-path="url(#clip1)">
<path d="M295.5 185.5L403 40.5L478.5 37L379.5 150.5L438.5 130.5L306 256.5L360 239.5L220 363.5L291 271L250 286L347 165L295.5 185.5Z" stroke="black" stroke-width="2"/>
<path d="M403 185.5L295.5 40.5L220 37L319 150.5L260 130.5L392.5 256.5L338.5 239.5L478.5 363.5L407.5 271L448.5 286L351.5 165L403 185.5Z" stroke="black" stroke-width="2"/>
</g>
<path d="M1 1L92.3057 53.5877M1 1L92.3057 79.5569M1 1L92.3057 112.018M1 1L92.3057 145.129M1 1L92.3057 181.486M92.3057 53.5877L158.357 79.5569M92.3057 53.5877L158.357 156.166M92.3057 53.5877L158.357 112.018M92.3057 53.5877L158.357 212M92.3057 53.5877L53.4522 156.166M92.3057 53.5877L30.7877 112.018M92.3057 53.5877L16.5414 79.5569M92.3057 53.5877H10.7134M92.3057 53.5877L1 19.1785M158.357 79.5569L229.588 96.4369M158.357 79.5569L229.588 167.852M158.357 79.5569L229.588 128.249M158.357 79.5569L229.588 212M158.357 79.5569L92.3057 145.129M158.357 79.5569L92.3057 112.018M158.357 79.5569H92.3057M229.588 96.4369L306 106.825M229.588 96.4369L306 156.166M229.588 96.4369L158.357 212M229.588 96.4369L158.357 156.166M229.588 96.4369L158.357 112.018M306 106.825V156.166M306 106.825L229.588 212M306 106.825L229.588 167.852M306 106.825L229.588 128.249M306 156.166L229.588 212M306 156.166L229.588 167.852M306 156.166L229.588 128.249M229.588 212H158.357M229.588 212L158.357 156.166M229.588 212L158.357 112.018M158.357 212L92.3057 181.486M158.357 212L229.588 167.852M158.357 212L229.588 128.249M158.357 212L92.3057 145.129M158.357 212L92.3057 112.018M158.357 212L92.3057 79.5569M92.3057 181.486L53.4522 156.166M92.3057 181.486L158.357 156.166M92.3057 181.486L158.357 112.018M92.3057 181.486L30.7877 112.018M92.3057 181.486L16.5414 79.5569M92.3057 181.486L10.7134 53.5877M92.3057 181.486L1 19.1785M53.4522 156.166L92.3057 79.5569M53.4522 156.166L92.3057 112.018M53.4522 156.166L92.3057 145.129M30.7877 112.018L92.3057 79.5569M30.7877 112.018H92.3057M30.7877 112.018L92.3057 145.129M16.5414 79.5569H92.3057M16.5414 79.5569L92.3057 112.018M16.5414 79.5569L92.3057 145.129M10.7134 53.5877L92.3057 79.5569M10.7134 53.5877L92.3057 112.018M10.7134 53.5877L92.3057 145.129M1 19.1785L92.3057 79.5569M1 19.1785L92.3057 112.018M1 19.1785L92.3057 145.129M92.3057 79.5569L158.357 156.166M92.3057 79.5569L158.357 112.018M92.3057 112.018L158.357 156.166M92.3057 112.018H158.357M92.3057 145.129L158.357 156.166M92.3057 145.129L158.357 112.018M158.357 156.166L229.588 167.852M158.357 156.166L229.588 128.249M158.357 112.018L229.588 167.852M158.357 112.018L229.588 128.249" stroke="black" stroke-width="2" stroke-linecap="round" stroke-linejoin="round"/>
<path d="M695 1L603.694 53.5877M695 1L603.694 79.5569M695 1L603.694 112.018M695 1L603.694 145.129M695 1L603.694 181.486M603.694 53.5877L537.643 79.5569M603.694 53.5877L537.643 156.166M603.694 53.5877L537.643 112.018M603.694 53.5877L537.643 212M603.694 53.5877L642.548 156.166M603.694 53.5877L665.212 112.018M603.694 53.5877L679.459 79.5569M603.694 53.5877H685.287M603.694 53.5877L695 19.1785M537.643 79.5569L466.412 96.4369M537.643 79.5569L466.412 167.852M537.643 79.5569L466.412 128.249M537.643 79.5569L466.412 212M537.643 79.5569L603.694 145.129M537.643 79.5569L603.694 112.018M537.643 79.5569H603.694M466.412 96.4369L390 106.825M466.412 96.4369L390 156.166M466.412 96.4369L537.643 212M466.412 96.4369L537.643 156.166M466.412 96.4369L537.643 112.018M390 106.825V156.166M390 106.825L466.412 212M390 106.825L466.412 167.852M390 106.825L466.412 128.249M390 156.166L466.412 212M390 156.166L466.412 167.852M390 156.166L466.412 128.249M466.412 212H537.643M466.412 212L537.643 156.166M466.412 212L537.643 112.018M537.643 212L603.694 181.486M537.643 212L466.412 167.852M537.643 212L466.412 128.249M537.643 212L603.694 145.129M537.643 212L603.694 112.018M537.643 212L603.694 79.5569M603.694 181.486L642.548 156.166M603.694 181.486L537.643 156.166M603.694 181.486L537.643 112.018M603.694 181.486L665.212 112.018M603.694 181.486L679.459 79.5569M603.694 181.486L685.287 53.5877M603.694 181.486L695 19.1785M642.548 156.166L603.694 79.5569M642.548 156.166L603.694 112.018M642.548 156.166L603.694 145.129M665.212 112.018L603.694 79.5569M665.212 112.018H603.694M665.212 112.018L603.694 145.129M679.459 79.5569H603.694M679.459 79.5569L603.694 112.018M679.459 79.5569L603.694 145.129M685.287 53.5877L603.694 79.5569M685.287 53.5877L603.694 112.018M685.287 53.5877L603.694 145.129M695 19.1785L603.694 79.5569M695 19.1785L603.694 112.018M695 19.1785L603.694 145.129M603.694 79.5569L537.643 156.166M603.694 79.5569L537.643 112.018M603.694 112.018L537.643 156.166M603.694 112.018H537.643M603.694 145.129L537.643 156.166M603.694 145.129L537.643 112.018M537.643 156.166L466.412 167.852M537.643 156.166L466.412 128.249M537.643 112.018L466.412 167.852M537.643 112.018L466.412 128.249" stroke="black" stroke-width="2" stroke-linecap="round" stroke-linejoin="round"/>
<defs>
<clipPath id="clip0">
<rect width="349" height="133" fill="white" transform="translate(184 248)"/>
</clipPath>
<clipPath id="clip1">
<rect width="282" height="110" fill="white" transform="translate(210 24)"/>
</clipPath>
</defs>
</svg>
