<svg width="730" height="332" viewBox="0 0 730 332" fill="none" xmlns="http://www.w3.org/2000/svg">
<path d="M310.23 151.637L418.77 5.5268L495 2L395.043 116.369L454.613 96.2159L320.832 223.181L375.354 206.051L234 331L305.687 237.792L264.29 252.907L362.228 130.98L310.23 151.637Z" stroke="black" stroke-width="2"/>
<path d="M418.77 151.637L310.23 5.5268L234 2L333.957 116.369L274.387 96.2159L408.168 223.181L353.646 206.051L495 331L423.313 237.792L464.71 252.907L366.772 130.98L418.77 151.637Z" stroke="black" stroke-width="2"/>
<circle cx="365" cy="172" r="95" fill="white" stroke="black" stroke-width="10" stroke-linecap="round" stroke-linejoin="round" stroke-dasharray="20 30"/>
<circle cx="364.5" cy="172.5" r="72.5" stroke="black" stroke-width="40"/>
<circle cx="364.5" cy="172.5" r="38" stroke="black" stroke-width="5"/>
<circle cx="365" cy="172" r="7.5" fill="black" stroke="black"/>
<path d="M28.3458 25.1782L116.796 69.3112M28.3458 25.1782L110.635 106.302M28.3458 25.1782L104.391 143.785M116.796 69.3112L22.1842 62.1686M116.796 69.3112L215.931 85.8243M116.796 69.3112L209.769 122.815M116.796 69.3112L203.525 160.298M116.796 69.3112L197.528 196.302M110.635 106.302L22.1842 62.1686M110.635 106.302L215.931 85.8243M110.635 106.302L209.769 122.815M110.635 106.302L203.525 160.298M110.635 106.302L197.528 196.302M104.391 143.785L22.1842 62.1686M104.391 143.785L209.769 122.815M104.391 143.785L203.525 160.298M104.391 143.785L197.528 196.302M104.391 143.785L215.931 85.8243M215.931 85.8243L304.214 100.53M215.931 85.8243L298.053 137.52M209.769 122.815L304.214 100.53M209.769 122.815L298.053 137.52M203.525 160.298L298.053 137.52M203.525 160.298L304.214 100.53M197.528 196.302L304.214 100.53M197.528 196.302L298.053 137.52" stroke="black" stroke-width="2"/>
<circle cx="116.714" cy="69.8045" r="5" transform="rotate(9.45708 116.714 69.8045)" fill="black"/>
<circle cx="110.635" cy="106.302" r="5" transform="rotate(9.45708 110.635 106.302)" fill="black"/>
<circle cx="104.391" cy="143.785" r="5" transform="rotate(9.45708 104.391 143.785)" fill="black"/>
<circle cx="215.355" cy="86.2353" r="5" transform="rotate(9.45708 215.355 86.2353)" fill="black"/>
<circle cx="209.276" cy="122.732" r="5" transform="rotate(9.45708 209.276 122.732)" fill="black"/>
<circle cx="203.032" cy="160.216" r="5" transform="rotate(9.45708 203.032 160.216)" fill="black"/>
<circle cx="197.117" cy="195.727" r="5" transform="rotate(9.45708 197.117 195.727)" fill="black"/>
<circle cx="304.132" cy="101.023" r="5" transform="rotate(9.45708 304.132 101.023)" fill="black"/>
<circle cx="298.053" cy="137.52" r="5" transform="rotate(9.45708 298.053 137.52)" fill="black"/>
<circle cx="28.7568" cy="25.7536" r="5" transform="rotate(9.45708 28.7568 25.7536)" fill="black"/>
<circle cx="22.6774" cy="62.2507" r="5" transform="rotate(9.45708 22.6774 62.2507)" fill="black"/>
<path d="M701.305 25.1782L612.854 69.3112M701.305 25.1782L619.016 106.302M701.305 25.1782L625.259 143.785M612.854 69.3112L707.466 62.1686M612.854 69.3112L513.72 85.8243M612.854 69.3112L519.882 122.815M612.854 69.3112L526.125 160.298M612.854 69.3112L532.123 196.302M619.016 106.302L707.466 62.1686M619.016 106.302L513.72 85.8243M619.016 106.302L519.882 122.815M619.016 106.302L526.125 160.298M619.016 106.302L532.123 196.302M625.259 143.785L707.466 62.1686M625.259 143.785L519.882 122.815M625.259 143.785L526.125 160.298M625.259 143.785L532.123 196.302M625.259 143.785L513.72 85.8243M513.72 85.8243L425.436 100.53M513.72 85.8243L431.598 137.52M519.882 122.815L425.436 100.53M519.882 122.815L431.598 137.52M526.125 160.298L431.598 137.52M526.125 160.298L425.436 100.53M532.123 196.302L425.436 100.53M532.123 196.302L431.598 137.52" stroke="black" stroke-width="2"/>
<circle r="5" transform="matrix(-0.986409 0.164309 0.164309 0.986409 612.936 69.8045)" fill="black"/>
<circle r="5" transform="matrix(-0.986409 0.164309 0.164309 0.986409 619.016 106.302)" fill="black"/>
<circle r="5" transform="matrix(-0.986409 0.164309 0.164309 0.986409 625.259 143.785)" fill="black"/>
<circle r="5" transform="matrix(-0.986409 0.164309 0.164309 0.986409 514.295 86.2353)" fill="black"/>
<circle r="5" transform="matrix(-0.986409 0.164309 0.164309 0.986409 520.375 122.732)" fill="black"/>
<circle r="5" transform="matrix(-0.986409 0.164309 0.164309 0.986409 526.619 160.216)" fill="black"/>
<circle r="5" transform="matrix(-0.986409 0.164309 0.164309 0.986409 532.534 195.727)" fill="black"/>
<circle r="5" transform="matrix(-0.986409 0.164309 0.164309 0.986409 425.519 101.023)" fill="black"/>
<circle r="5" transform="matrix(-0.986409 0.164309 0.164309 0.986409 431.598 137.52)" fill="black"/>
<circle r="5" transform="matrix(-0.986409 0.164309 0.164309 0.986409 700.894 25.7536)" fill="black"/>
<circle r="5" transform="matrix(-0.986409 0.164309 0.164309 0.986409 706.973 62.2507)" fill="black"/>
</svg>
